<svg id="Calque_1" data-name="Calque 1" xmlns="http://www.w3.org/2000/svg" viewBox="0 0 86.25 86.25">
  <defs>
    <style>
      .cls-1 {
        fill: #fff;
      }

      .cls-2 {
        fill: none;
        stroke: #fff;
        stroke-miterlimit: 10;
      }
    </style>
  </defs>
  <path class="cls-1" d="M44.15,52.76c23.81,0,43.12,9,43.12,20.12V87.26H1V72.88C1,61.77,20.33,52.76,44.15,52.76ZM81.52,72.88c0-7.93-16.73-14.37-37.37-14.37S6.77,65,6.77,72.88v8.63H81.52ZM44.15,1A20.13,20.13,0,1,1,29.92,6.9,20.16,20.16,0,0,1,44.15,1Zm0,5.75A14.37,14.37,0,1,0,54.31,11,14.36,14.36,0,0,0,44.15,6.76Z" transform="translate(-1.02 -1.01)"/>
  <path class="cls-2" d="M32,16.18H42.17a0,0,0,0,1,0,0v7.4a3.32,3.32,0,0,1-3.32,3.32H35.28A3.32,3.32,0,0,1,32,23.58v-7.4A0,0,0,0,1,32,16.18Z"/>
  <path class="cls-2" d="M44.28,16.18H54.49a0,0,0,0,1,0,0v7.4a3.32,3.32,0,0,1-3.32,3.32H47.6a3.32,3.32,0,0,1-3.32-3.32v-7.4A0,0,0,0,1,44.28,16.18Z"/>
</svg>
