<svg width="91" height="123" viewBox="0 0 91 123" fill="none" xmlns="http://www.w3.org/2000/svg">
<path d="M24.5 80C23.5717 80 22.6815 79.6313 22.0251 78.9749C21.3687 78.3185 21 77.4283 21 76.5V66H7C5.14348 66 3.36301 65.2625 2.05025 63.9497C0.737498 62.637 0 60.8565 0 59V17C0 15.1435 0.737498 13.363 2.05025 12.0503C3.36301 10.7375 5.14348 10 7 10H63C64.8565 10 66.637 10.7375 67.9497 12.0503C69.2625 13.363 70 15.1435 70 17V59C70 60.8565 69.2625 62.637 67.9497 63.9497C66.637 65.2625 64.8565 66 63 66H41.65L28.7 78.985C28 79.65 27.125 80 26.25 80H24.5ZM28 59V69.78L38.78 59H63V17H7V59H28ZM14 27.5H56V34.5H14V27.5ZM14 41.5H45.5V48.5H14V41.5Z" fill="#B6B6B6" fill-opacity="0.8"/>
<path d="M65.24 74.6V72.84C65.24 70.0133 65.72 67.5333 66.68 65.4C67.6933 63.2667 68.8933 61.56 70.28 60.28C71.72 58.9467 73.1333 57.6933 74.52 56.52C75.96 55.3467 77.16 53.9867 78.12 52.44C79.1333 50.8933 79.64 49.16 79.64 47.24C79.64 44.7333 78.76 42.6533 77 41C75.24 39.3467 72.8133 38.52 69.72 38.52C66.1467 38.52 63.3467 39.5067 61.32 41.48C59.3467 43.4533 58.36 46.0933 58.36 49.4H51.56C51.56 44.2267 53.2133 40.04 56.52 36.84C59.88 33.64 64.28 32.04 69.72 32.04C75.0533 32.04 79.2133 33.48 82.2 36.36C85.1867 39.24 86.68 42.8933 86.68 47.32C86.68 49.8267 86.1733 52.04 85.16 53.96C84.2 55.88 83 57.48 81.56 58.76C80.1733 59.9867 78.76 61.2133 77.32 62.44C75.9333 63.6133 74.7333 65.08 73.72 66.84C72.76 68.6 72.28 70.6267 72.28 72.92V74.6H65.24ZM72.52 88.44C71.4533 89.5067 70.1467 90.04 68.6 90.04C67.0533 90.04 65.7467 89.5067 64.68 88.44C63.6133 87.32 63.08 86.04 63.08 84.6C63.08 83.1067 63.6133 81.8267 64.68 80.76C65.7467 79.64 67.0533 79.08 68.6 79.08C70.1467 79.08 71.4533 79.64 72.52 80.76C73.64 81.88 74.2 83.16 74.2 84.6C74.2 86.04 73.64 87.32 72.52 88.44Z" fill="#B6B6B6"/>
</svg>
