<svg width="87" height="87" viewBox="0 0 87 87" fill="none" xmlns="http://www.w3.org/2000/svg">
<path d="M43.125 52.5C66.9415 52.5 86.25 61.5103 86.25 72.625V87H0V72.625C0 61.5103 19.3085 52.5 43.125 52.5ZM80.5 72.625C80.5 64.69 63.7675 58.25 43.125 58.25C22.4825 58.25 5.75 64.69 5.75 72.625V81.25H80.5V72.625ZM43.125 0.75C48.4625 0.75 53.5814 2.87031 57.3555 6.64448C61.1297 10.4186 63.25 15.5375 63.25 20.875C63.25 26.2125 61.1297 31.3314 57.3555 35.1055C53.5814 38.8797 48.4625 41 43.125 41C37.7875 41 32.6686 38.8797 28.8945 35.1055C25.1203 31.3314 23 26.2125 23 20.875C23 15.5375 25.1203 10.4186 28.8945 6.64448C32.6686 2.87031 37.7875 0.75 43.125 0.75ZM43.125 6.5C39.3125 6.5 35.6562 8.0145 32.9603 10.7103C30.2645 13.4062 28.75 17.0625 28.75 20.875C28.75 24.6875 30.2645 28.3438 32.9603 31.0397C35.6562 33.7355 39.3125 35.25 43.125 35.25C46.9375 35.25 50.5938 33.7355 53.2897 31.0397C55.9855 28.3438 57.5 24.6875 57.5 20.875C57.5 17.0625 55.9855 13.4062 53.2897 10.7103C50.5938 8.0145 46.9375 6.5 43.125 6.5Z" fill="white"/>
</svg>
