<svg width="40" height="40" viewBox="0 0 40 40" fill="none" xmlns="http://www.w3.org/2000/svg">
<g clip-path="url(#clip0_144_3)">
<path d="M31.6191 1.43148L19.9991 13.0521C16.126 9.18024 12.2516 5.30461 8.37785 1.43148C3.8966 -3.04977 -3.04965 3.89898 1.42785 8.38149C5.30223 12.2521 9.17785 16.1284 13.0479 20.0015C9.17608 23.8764 5.30275 27.7497 1.42785 31.6215C-3.04965 36.1015 3.89723 43.0484 8.37785 38.5715C12.251 34.6971 16.1254 30.8221 19.9985 26.9502L31.6185 38.5715C36.0997 43.0515 43.0479 36.1021 38.5685 31.6215C34.6941 27.7471 30.821 23.874 26.9454 20.0002C30.8204 16.1259 34.6935 12.2515 38.5685 8.37774C43.0485 3.89898 36.1004 -3.04977 31.6185 1.43398" fill="white"/>
</g>
<defs>
<clipPath id="clip0_144_3">
<rect width="40" height="40" fill="white"/>
</clipPath>
</defs>
</svg>
