<svg width="21" height="21" viewBox="0 0 21 21" fill="none" xmlns="http://www.w3.org/2000/svg">
<path d="M18.1685 20.125L11.6138 13.5717C10.1826 14.5159 8.45194 14.8954 6.75697 14.6367C5.062 14.378 3.52332 13.4995 2.43892 12.1714C1.35451 10.8432 0.801521 9.15996 0.887041 7.4475C0.972562 5.73503 1.6905 4.11522 2.90184 2.90174C4.1151 1.68995 5.7349 0.971538 7.44751 0.885649C9.16013 0.79976 10.8437 1.35251 12.1721 2.43683C13.5005 3.52116 14.3792 5.0599 14.6381 6.75502C14.8969 8.45014 14.5175 10.181 13.5732 11.6124L20.1251 18.1684L18.1685 20.125ZM7.79684 3.64424C6.69553 3.64351 5.63903 4.08031 4.85977 4.85854C4.08051 5.63677 3.64232 6.69268 3.64159 7.79399C3.64086 8.8953 4.07766 9.9518 4.85589 10.7311C5.63411 11.5103 6.69003 11.9485 7.79134 11.9492C8.33665 11.9496 8.8767 11.8426 9.38064 11.6342C9.88459 11.4259 10.3426 11.1203 10.7284 10.7349C11.1143 10.3496 11.4204 9.89204 11.6294 9.38838C11.8385 8.88471 11.9462 8.34481 11.9466 7.79949C11.947 7.25418 11.8399 6.71413 11.6316 6.21019C11.4232 5.70625 11.1176 5.24828 10.7323 4.86243C10.347 4.47658 9.88939 4.1704 9.38572 3.96139C8.88206 3.75237 8.34215 3.64461 7.79684 3.64424Z" fill="white"/>
</svg>
